<svg id="Layer_1" data-name="Layer 1" xmlns="http://www.w3.org/2000/svg" viewBox="0 0 532.3 79.52"><defs><style>.cls-1{fill:#231f20;}.cls-2{fill:#d2232a;}.cls-3{fill:none;}</style></defs><title>the-robot-report-logo-tag</title><path class="cls-1" d="M177.07,321h9.24c7.68,0,11.54,4.23,11.54,10.27,0,4-1.64,7.15-5.26,8.83l7.39,9.78h-6l-6.12-8.5q-1.23.12-2.59.12h-3.16v8.38h-5.09Zm5.09,4.68V337h3.78c4.77,0,6.41-2.55,6.41-5.71s-1.6-5.59-6.41-5.59Z" transform="translate(-43.68 -306.42)"/><path class="cls-1" d="M222.38,320.52c9,0,15.44,6.28,15.44,14.91s-6.61,14.91-15.44,14.91S207,344,207,335.43C207,327.09,213.71,320.52,222.38,320.52Zm0,25.34a10,10,0,0,0,9.94-10.35c0-5.92-4.15-10.39-9.94-10.39s-9.94,4.48-9.94,10.39A10,10,0,0,0,222.42,345.87Z" transform="translate(-43.68 -306.42)"/><path class="cls-1" d="M247.93,321h9.24c7.44,0,10.76,3.08,10.76,7.64,0,3.12-1.81,5.34-5.05,6.49,4,1.15,5.83,3.49,5.83,6.57,0,5.13-5,8.17-11.54,8.17h-9.24ZM253,325.7v7.85h3.66c4.15,0,6-2.09,6-4.27,0-2-1.48-3.57-5.22-3.57Zm0,11.5v8h4.4c4.31,0,5.79-1.89,5.79-4,0-2-1.64-4-7-4Z" transform="translate(-43.68 -306.42)"/><path class="cls-1" d="M292.58,320.52c9,0,15.44,6.28,15.44,14.91s-6.61,14.91-15.44,14.91-15.4-6.37-15.4-14.91C277.17,327.09,283.91,320.52,292.58,320.52Zm0,25.34a10,10,0,0,0,9.94-10.35c0-5.92-4.15-10.39-9.94-10.39s-9.94,4.48-9.94,10.39A10,10,0,0,0,292.62,345.87Z" transform="translate(-43.68 -306.42)"/><path class="cls-1" d="M313.65,321h24.28v4.68h-9.49v24.19H323.3V325.7h-9.65Z" transform="translate(-43.68 -306.42)"/><path class="cls-1" d="M81.16,323.82H70.36V349.9H66.92V323.82H56.13V321h25Z" transform="translate(-43.68 -306.42)"/><path class="cls-1" d="M113.2,349.9h-3.44V336.82H95.29V349.9H91.84V321h3.44v13h14.48V321h3.44Z" transform="translate(-43.68 -306.42)"/><path class="cls-1" d="M141.37,336.82H128.91V347h14.44v2.86H125.47V321h17.48v2.86h-14V334h12.46Z" transform="translate(-43.68 -306.42)"/><path class="cls-2" d="M346.88,321h9.24c7.68,0,11.54,4.23,11.54,10.27,0,4-1.64,7.15-5.26,8.83l7.39,9.78h-6l-6.12-8.5q-1.23.12-2.59.12H352v8.38h-5.09ZM352,325.7V337h3.78c4.76,0,6.41-2.55,6.41-5.71s-1.6-5.59-6.41-5.59Z" transform="translate(-43.68 -306.42)"/><path class="cls-2" d="M378.75,321h18.77v4.68H383.85v8.09h12.41v4.52H383.85v6.9h13.68v4.68H378.75Z" transform="translate(-43.68 -306.42)"/><path class="cls-2" d="M413.3,341.51v8.38h-5.09V321H417c7.68,0,11.54,4.23,11.54,10.27s-3.82,10.23-12.53,10.23Zm0-15.81V337h3.37c4.76,0,6.41-2.55,6.41-5.71s-1.6-5.59-6.41-5.59Z" transform="translate(-43.68 -306.42)"/><path class="cls-2" d="M451.38,320.52c9,0,15.44,6.28,15.44,14.91s-6.61,14.91-15.44,14.91S436,344,436,335.43C436,327.09,442.71,320.52,451.38,320.52Zm0,25.34a10,10,0,0,0,9.94-10.35c0-5.92-4.15-10.39-9.94-10.39s-9.94,4.48-9.94,10.39A10,10,0,0,0,451.42,345.87Z" transform="translate(-43.68 -306.42)"/><path class="cls-2" d="M476.8,321H486c7.68,0,11.54,4.23,11.54,10.27,0,4-1.64,7.15-5.26,8.83l7.39,9.78h-6l-6.12-8.5q-1.23.12-2.59.12H481.9v8.38H476.8Zm5.09,4.68V337h3.78c4.76,0,6.41-2.55,6.41-5.71s-1.6-5.59-6.41-5.59Z" transform="translate(-43.68 -306.42)"/><path class="cls-2" d="M504.45,321h24.28v4.68h-9.49v24.19H514.1V325.7h-9.65Z" transform="translate(-43.68 -306.42)"/><polygon class="cls-2" points="495.93 60.22 113.27 60.22 113.27 0.02 495.95 0.02 495.95 4.77 118.02 4.77 118.02 55.47 491.18 55.47 491.18 19.28 460.58 19.28 460.58 14.53 495.93 14.53 495.93 60.22"/><path class="cls-1" d="M536.91,385.71c1.48,0,2.71-.63,2.71-2.39,0-1.57-1.3-2.19-2.53-2.63-.73-.27-1.69-.71-1.69-1.45a1.41,1.41,0,0,1,1.48-1.51,3.35,3.35,0,0,1,2.1.75l.49-.65a4,4,0,0,0-2.59-.95,2.27,2.27,0,0,0-2.45,2.35c0,2.77,4.22,1.91,4.22,4.08,0,1-.55,1.54-1.74,1.54a3.41,3.41,0,0,1-2.15-.74l-.48.66a4.11,4.11,0,0,0,2.63.92m-7.76,0a5,5,0,0,0,3-1l-.47-.68a4.45,4.45,0,0,1-2.49.87,3.56,3.56,0,0,1,0-7.12,4.19,4.19,0,0,1,2.3.7l.45-.69a5,5,0,0,0-2.74-.86,4.4,4.4,0,1,0,0,8.81m-7.81-.11h1V377h-1ZM519.22,377h-7.06v.85h3v7.74h1v-7.74h3Zm-12.57.73a3.56,3.56,0,1,1-3.43,3.55,3.51,3.51,0,0,1,3.43-3.55m0,8a4.4,4.4,0,1,0-4.43-4.42,4.4,4.4,0,0,0,4.43,4.42m-10.55-7.85h1.19c1.09,0,1.63.59,1.63,1.44s-.8,1.48-1.86,1.48h-1Zm0,3.77h1.67a1.72,1.72,0,0,1,1.87,1.55c0,1.08-.81,1.57-1.84,1.57H496.1Zm1.71,4c1.61,0,2.82-.81,2.82-2.42a2.39,2.39,0,0,0-1.75-2.12,2.16,2.16,0,0,0,1-1.76c0-1.51-1.11-2.29-2.62-2.29h-2.16v8.58Zm-9.4-7.85a3.56,3.56,0,0,1,0,7.12,3.56,3.56,0,0,1,0-7.12m0,8a4.4,4.4,0,1,0-4.43-4.42,4.4,4.4,0,0,0,4.43,4.42m-11.1-7.85H479a1.73,1.73,0,0,1,1.91,1.66A1.71,1.71,0,0,1,479,381h-1.67Zm0,4h1.49l2.54,3.71h1.13l-2.64-3.81a2.33,2.33,0,0,0,2-2.26c0-1.64-1.35-2.51-2.9-2.51h-2.62v8.58h1Zm-7.44-1h-3.41v-3h3.86V377h-4.83v8.58h1v-3.88h3.41Zm-11.11-3.13a3.56,3.56,0,1,1-3.43,3.55,3.51,3.51,0,0,1,3.43-3.55m0,8a4.4,4.4,0,1,0-4.43-4.42,4.4,4.4,0,0,0,4.43,4.42m-12.93,0c1.48,0,2.71-.63,2.71-2.39,0-1.57-1.3-2.19-2.53-2.63-.73-.27-1.69-.71-1.69-1.45a1.41,1.41,0,0,1,1.48-1.51,3.35,3.35,0,0,1,2.1.75l.49-.65a4,4,0,0,0-2.59-.95,2.27,2.27,0,0,0-2.45,2.35c0,2.77,4.21,1.91,4.21,4.08,0,1-.55,1.54-1.74,1.54a3.41,3.41,0,0,1-2.15-.74l-.48.66a4.11,4.11,0,0,0,2.63.92m-5,.23V377h-1v6.45l-6.19-6.71v8.84h1v-6.36Zm-13.88-8.2a3.56,3.56,0,1,1-3.43,3.55,3.51,3.51,0,0,1,3.43-3.55m0,8a4.4,4.4,0,1,0-4.43-4.42,4.4,4.4,0,0,0,4.43,4.42m-7.74-.11h1V377h-1ZM417.06,377H410v.85h3v7.74h1v-7.74h3Zm-10.88,1.86,1.51,3.37h-3Zm-1.86,4.21H408l1.12,2.51h1.07l-4-8.84-4,8.84h1.07Zm-6.81,2.62a5,5,0,0,0,3-1L400,384a4.45,4.45,0,0,1-2.49.87,3.56,3.56,0,0,1,0-7.12,4.19,4.19,0,0,1,2.3.7l.44-.69a5,5,0,0,0-2.74-.86,4.4,4.4,0,1,0,0,8.81m-7.81-.11h1V377h-1Zm-1.9,0v-.85h-4.07V377h-1v8.58ZM375.88,381v-3.18h1.64a1.7,1.7,0,0,1,1.9,1.64,1.66,1.66,0,0,1-1.8,1.54Zm0,4.56v-3.71h1.74a2.53,2.53,0,0,0,2.79-2.39c0-1.61-1.29-2.49-2.89-2.49h-2.61v8.58ZM368,381v-3.18h1.64a1.7,1.7,0,0,1,1.9,1.64,1.66,1.66,0,0,1-1.8,1.54Zm0,4.56v-3.71h1.74a2.53,2.53,0,0,0,2.79-2.39c0-1.61-1.29-2.49-2.89-2.49h-2.61v8.58Zm-6.89-6.72,1.5,3.37h-3Zm-1.86,4.21H363l1.11,2.51h1.07l-4-8.84-4,8.84h1.07Zm-13.56,1.66v-6.89h1.66a3.45,3.45,0,0,1,0,6.89Zm1.66.85a4.29,4.29,0,1,0,0-8.58h-2.63v8.58Zm-5.2.35V377h-1v6.45L335,376.75v8.84h1v-6.36Zm-13.08-7.07,1.51,3.37h-3Zm-1.86,4.21H331l1.11,2.51h1.07l-4-8.84-4,8.84h1.07ZM317,385.71c1.48,0,2.71-.63,2.71-2.39,0-1.57-1.3-2.19-2.53-2.63-.73-.27-1.69-.71-1.69-1.45a1.41,1.41,0,0,1,1.48-1.51,3.35,3.35,0,0,1,2.1.75l.49-.65a4,4,0,0,0-2.59-.95,2.27,2.27,0,0,0-2.45,2.35c0,2.77,4.21,1.91,4.21,4.08,0,1-.55,1.54-1.74,1.54a3.41,3.41,0,0,1-2.15-.74l-.48.66a4.1,4.1,0,0,0,2.63.92m-7.57,0c1.48,0,2.71-.63,2.71-2.39,0-1.57-1.3-2.19-2.53-2.63-.73-.27-1.68-.71-1.68-1.45a1.41,1.41,0,0,1,1.48-1.51,3.35,3.35,0,0,1,2.1.75l.49-.65a4,4,0,0,0-2.59-.95,2.27,2.27,0,0,0-2.45,2.35c0,2.77,4.21,1.91,4.21,4.08,0,1-.55,1.54-1.74,1.54a3.41,3.41,0,0,1-2.15-.74l-.48.66a4.1,4.1,0,0,0,2.63.92M304,380.88H300.5v-3h4V377h-4.93v8.58h5v-.85H300.5v-3H304Zm-7,5.06V377h-1v6.45l-6.19-6.71v8.84h1v-6.36Zm-10.69-.35h1V377h-1Zm-5.11.11c1.48,0,2.71-.63,2.71-2.39,0-1.57-1.3-2.19-2.53-2.63-.72-.27-1.68-.71-1.68-1.45a1.41,1.41,0,0,1,1.48-1.51,3.35,3.35,0,0,1,2.1.75l.49-.65a4,4,0,0,0-2.59-.95,2.27,2.27,0,0,0-2.45,2.35c0,2.77,4.21,1.91,4.21,4.08,0,1-.55,1.54-1.74,1.54a3.42,3.42,0,0,1-2.15-.74l-.48.66a4.11,4.11,0,0,0,2.63.92m-8.51,0a3.54,3.54,0,0,0,3.47-3.55V377h-1v5.17a2.5,2.5,0,1,1-5,0V377h-1v5.17a3.53,3.53,0,0,0,3.47,3.52m-10.4-7.85h1.19c1.09,0,1.63.59,1.63,1.44s-.8,1.48-1.86,1.48h-1Zm0,3.77h1.67a1.71,1.71,0,0,1,1.87,1.55c0,1.08-.81,1.57-1.84,1.57h-1.71Zm1.71,4c1.61,0,2.82-.81,2.82-2.42a2.39,2.39,0,0,0-1.75-2.12,2.16,2.16,0,0,0,1-1.76c0-1.51-1.11-2.29-2.62-2.29h-2.16v8.58Zm-9.26-4.72h-3.51v-3h4V377h-4.93v8.58h5v-.85h-4.07v-3h3.51Zm-7-3.87h-1v3.87h-4.08V377h-1v8.58h1v-3.88h4.08v3.88h1Zm-8.14,0h-7.06v.85h3v7.74h1v-7.74h3Zm-15.67,8.7a5.34,5.34,0,0,0,3-1.06v-3.17h-2.61v.85h1.64v1.92a4.44,4.44,0,0,1-2.06.61,3.56,3.56,0,0,1,0-7.12,4.32,4.32,0,0,1,2.31.68l.44-.69a5.16,5.16,0,0,0-2.75-.83,4.4,4.4,0,1,0,0,8.81Zm-6.85.23V377h-1v6.45l-6.19-6.71v8.84h1v-6.36Zm-10.69-.35h1V377h-1ZM199,377.86h1.65a1.73,1.73,0,0,1,1.91,1.66A1.71,1.71,0,0,1,200.7,381H199Zm0,4h1.5l2.54,3.71h1.12l-2.64-3.81a2.33,2.33,0,0,0,2-2.26c0-1.64-1.35-2.51-2.9-2.51h-2.62v8.58h1Zm-7.69-4.14a3.56,3.56,0,0,1,0,7.12,3.56,3.56,0,0,1,0-7.12m0,8a4.4,4.4,0,1,0-4.43-4.42,4.4,4.4,0,0,0,4.43,4.42m-5.23-.11v-.85H182V377h-1v8.58ZM174.2,381v-3.18h1.64a1.7,1.7,0,0,1,1.9,1.64,1.66,1.66,0,0,1-1.8,1.54Zm0,4.56v-3.71h1.74a2.53,2.53,0,0,0,2.79-2.39c0-1.61-1.29-2.49-2.89-2.49h-2.61v8.58ZM167.52,382l2.68,3.61h1.14l-3.28-4.4,3.11-4.18H170l-2.53,3.42L165,377h-1.1l3.13,4.18-3.3,4.4h1.14Zm-6.09-1.1h-3.51v-3h4V377h-4.93v8.58h5v-.85h-4.07v-3h3.51Z" transform="translate(-43.68 -306.42)"/><rect class="cls-3" width="532.3" height="79.04"/></svg>